# xmcd CD database file
#
# Track frame offsets:
#	150
#	21875
#	42516
#	69147
#	102609
#	129810
#	154086
#	181853
#	209373
#	238067
#
# Disc length: 3645 seconds
#
# Revision: 0
# Processed by: cddbd v1.5.2PL0 Copyright (c) Steve Scherf et al.
# Submitted via: CDex 1.51
#
DISCID=810e3b0a
DTITLE=Terry and Mike Oldfield - Journey Into Space
DYEAR=2012
DGENRE=New Age
TTITLE0=Origin
TTITLE1=Traveller
TTITLE2=Flight Of The Eagle
TTITLE3=Gayatri
TTITLE4=Shadow Dancer
TTITLE5=Jai Ram
TTITLE6=Moola Mantra
TTITLE7=Mangalam
TTITLE8=Dancer In The Void
TTITLE9=Be Still
EXTD=YEAR: 2012
EXTT0=
EXTT1=
EXTT2=
EXTT3=
EXTT4=
EXTT5=
EXTT6=
EXTT7=
EXTT8=
EXTT9=
PLAYORDER=
